<svg width="361" height="436" viewBox="0 0 361 436" fill="none" xmlns="http://www.w3.org/2000/svg">
<path fill-rule="evenodd" clip-rule="evenodd" d="M180.452 435.133C161.621 412.069 140.852 390.651 118.392 371.126C133.358 322.587 141.414 271.017 141.414 217.566C141.414 164.115 133.358 112.546 118.392 64.0071C140.852 44.4822 161.621 23.0636 180.452 2.15187e-06C199.283 23.0636 220.053 44.4821 242.512 64.0071C227.547 112.546 219.49 164.115 219.49 217.566C219.49 271.017 227.547 322.586 242.512 371.126C220.053 390.651 199.283 412.069 180.452 435.133ZM285.442 97.5659C309.215 114.229 334.446 128.955 360.905 141.515C353.565 165.572 349.617 191.108 349.617 217.566C349.617 244.025 353.565 269.561 360.905 293.618C334.446 306.178 309.215 320.904 285.442 337.567C276.351 299.043 271.541 258.867 271.541 217.566C271.541 176.266 276.351 136.09 285.442 97.5659ZM89.3638 217.566C89.3638 176.266 84.5537 136.089 75.4632 97.5659C51.6894 114.229 26.4586 128.955 2.4491e-05 141.515C7.3395 165.572 11.2878 191.108 11.2878 217.566C11.2878 244.025 7.33949 269.561 1.68755e-06 293.618C26.4586 306.178 51.6894 320.904 75.4631 337.567C84.5537 299.043 89.3638 258.867 89.3638 217.566Z" fill="#6851FF"/>
</svg>
