<?xml version="1.0" encoding="UTF-8"?>
<svg width="128px" height="128px" viewBox="0 0 128 128" version="1.1" xmlns="http://www.w3.org/2000/svg" xmlns:xlink="http://www.w3.org/1999/xlink">
    <g id="portis" stroke="none" stroke-width="1" fill="none" fill-rule="evenodd">
        <g transform="translate(31.000000, 14.000000)" fill-rule="nonzero" id="Path">
            <polygon fill="#133444" points="0.986842105 57.4780702 3.37719298 56.4254386 33.0482456 43.5307018 65.1096491 57.4780702 53.0701754 82.3464912 23.6184211 86.5131579 1.46929825 62.6096491"></polygon>
            <path d="M58.4429825,42.127193 C53.1578947,35.745614 45.6359649,31.6008772 37.4342105,30.504386 C37.2587719,30.4824561 37.0833333,30.4605263 36.9078947,30.4385965 C34.3421053,30.1315789 31.754386,30.1315789 29.1885965,30.4385965 C29.0131579,30.4605263 28.8377193,30.4824561 28.6622807,30.504386 C20.4385965,31.6008772 12.9385965,35.745614 7.65350877,42.127193 L7.65350877,42.127193 L6.31578947,44.3421053 L4.10087719,48.0263158 L2.47807018,50.7236842 L2.47807018,50.7236842 C2.45614035,50.7894737 2.4122807,50.877193 2.39035088,50.9429825 L2.36842105,50.9868421 L5.96491228,53.1140351 L28.6622807,66.5570175 L33.0482456,69.1447368 L33.0482456,37.0175439 L28.6622807,39.0131579 L28.6622807,34.2105263 L33.0482456,32.2149123 L37.4342105,34.2105263 L59.7807018,44.3640351 L58.4429825,42.127193 Z" fill="#C42370"></path>
            <path d="M66.0964912,65.4605263 C66.0964912,76.1622807 61.0087719,86.1622807 53.1359649,92.6096491 C50.0438596,95.1535088 46.4912281,97.127193 42.6973684,98.3991228 C39.5833333,99.4298246 36.3377193,99.9561404 33.0701754,99.9561404 C14.8026316,99.9561404 0,83.7280702 0,65.4605263 C0,62.7631579 0.328947368,60.0877193 0.964912281,57.4561404 L33.0482456,76.4473684 L65.1096491,57.4780702 C65.7675439,60.0877193 66.0964912,62.7850877 66.0964912,65.4605263 Z" fill="#1C4D6B"></path>
            <polygon fill="#000000" points="29.1885965 30.4605263 33.0482456 32.2149123 28.6622807 34.2105263 28.6622807 30.2192982"></polygon>
            <polygon fill="#000000" points="28.6622807 39.0131579 33.0482456 37.0175439 33.0482456 69.1666667 28.6622807 66.5570175"></polygon>
            <polygon fill="#1D4259" points="33.0482456 37.0175439 33.0482456 69.1666667 63.7719298 50.9868421"></polygon>
            <polygon fill="#4B6B9A" points="33.0482456 0 33.0482456 37.0175439 63.7719298 50.9868421"></polygon>
            <path d="M33.0482456,37.0175439 L33.0482456,69.1447368 L28.6622807,66.5570175 L2.34649123,50.9868421 L2.30263158,50.9649123 L2.36842105,50.9429825 C2.39035088,50.877193 2.43421053,50.7894737 2.45614035,50.7236842 L2.45614035,50.7236842 L6.29385965,44.3421053 L28.6622807,34.2105263 L28.6622807,39.0350877 L33.0482456,37.0175439 Z" fill="#343535"></path>
            <polygon fill="#3E5578" points="33.0482456 37.0175439 33.0482456 69.1666667 28.6622807 66.5570175 2.34649123 51.0087719 2.3245614 50.9868421 2.36842105 50.9649123 28.6622807 39.0131579"></polygon>
            <polygon fill="#6DB2D8" points="33.0482456 0 33.0482456 37.0175439 2.3245614 50.9868421"></polygon>
            <path d="M20.6140351,97.3245614 C21.0745614,97.5219298 21.5350877,97.7192982 21.995614,97.8947368 C21.5350877,97.7192982 21.0745614,97.5438596 20.6140351,97.3245614 Z" fill="#335F8A"></path>
            <path d="M21.995614,97.8947368 C22.4561404,98.0701754 22.9385965,98.245614 23.4210526,98.3991228 C22.9385965,98.245614 22.4561404,98.0921053 21.995614,97.8947368 Z" fill="#335F8A"></path>
            <path d="M24.627193,98.7938596 C25,98.9035088 25.3508772,98.9912281 25.7236842,99.0789474 C25.372807,98.9912281 25,98.8815789 24.627193,98.7938596 Z" fill="#335F8A"></path>
            <path d="M0.986842105,57.4780702 L33.0482456,76.4473684 C32.6096491,79.3421053 31.8421053,82.1491228 30.745614,84.8684211 C28.1798246,91.0745614 23.004386,97.6315789 12.9605263,92.6315789 L12.9605263,92.6315789 C5.06578947,86.1842105 0,76.1622807 0,65.4605263 C0,62.7850877 0.328947368,60.0877193 0.986842105,57.4780702 Z" fill="#6DB2D8"></path>
            <path d="M53.1140351,92.6315789 L53.0263158,92.6973684 C52.8508772,92.8289474 52.6973684,92.9605263 52.5219298,93.0921053 L52.4780702,93.1359649 C52.3026316,93.2894737 52.1052632,93.4210526 51.9298246,93.5526316 C51.7324561,93.7061404 51.5350877,93.8596491 51.3157895,93.9912281 C51.0964912,94.122807 50.8991228,94.2763158 50.7017544,94.4298246 C50.504386,94.5833333 50.3289474,94.6710526 50.1535088,94.8026316 L50.0438596,94.8684211 C49.8464912,95 49.6491228,95.1096491 49.4736842,95.2412281 C49.4517544,95.2631579 49.4298246,95.2631579 49.4078947,95.2850877 C49.2105263,95.4166667 49.0131579,95.5263158 48.8157895,95.6359649 C48.6184211,95.745614 48.377193,95.8991228 48.1578947,96.0087719 C47.9385965,96.1403509 47.7192982,96.25 47.5,96.3596491 L47.4780702,96.3815789 C47.2587719,96.4912281 47.0394737,96.6008772 46.8201754,96.7105263 C46.6008772,96.8201754 46.3815789,96.9298246 46.1403509,97.0394737 C45.8991228,97.1491228 45.6798246,97.2587719 45.4605263,97.3464912 C45,97.5438596 44.5394737,97.7412281 44.0789474,97.9166667 C43.6184211,98.0921053 43.1359649,98.2675439 42.6535088,98.4210526 C42.4561404,98.4868421 42.2807018,98.5526316 42.0833333,98.5964912 C41.8859649,98.6622807 41.6447368,98.7280702 41.4473684,98.7938596 C41.0745614,98.9035088 40.7236842,98.9912281 40.3508772,99.0789474 C40.2192982,99.122807 40.0657895,99.1447368 39.9342105,99.1885965 L39.6929825,99.2324561 C39.495614,99.2763158 39.2982456,99.3201754 39.1008772,99.3640351 C38.9035088,99.4078947 38.75,99.4298246 38.5526316,99.4736842 C38.3552632,99.5175439 38.2236842,99.5394737 38.0482456,99.5614035 C37.872807,99.5833333 37.6754386,99.627193 37.5,99.6491228 C37.4122807,99.6710526 37.3245614,99.6710526 37.2368421,99.6929825 L36.8201754,99.7368421 L36.5789474,99.7587719 C36.4254386,99.7807018 36.2719298,99.8026316 36.1184211,99.8026316 C35.9210526,99.8245614 35.745614,99.8464912 35.5482456,99.8464912 C35.3947368,99.8464912 35.2631579,99.8684211 35.1096491,99.8903509 C34.9561404,99.8903509 34.8464912,99.9122807 34.7149123,99.9122807 L34.6929825,99.9122807 C34.5394737,99.9122807 34.3859649,99.9342105 34.254386,99.9342105 C34.0570175,99.9342105 33.8377193,99.9561404 33.6403509,99.9561404 C33.4429825,99.9561404 33.2236842,99.9561404 33.004386,99.9561404 C32.7850877,99.9561404 32.5877193,99.9561404 32.3684211,99.9561404 C32.1491228,99.9561404 31.9517544,99.9561404 31.754386,99.9342105 C31.6008772,99.9342105 31.4473684,99.9122807 31.2938596,99.9122807 L31.2719298,99.9122807 C31.1403509,99.9122807 31.0087719,99.8903509 30.877193,99.8903509 C30.745614,99.8903509 30.5921053,99.8684211 30.4385965,99.8464912 C30.2412281,99.8245614 30.0657895,99.8245614 29.8684211,99.8026316 C29.7149123,99.7807018 29.5614035,99.7807018 29.4078947,99.7587719 L29.1885965,99.7368421 C29.0570175,99.7149123 28.9035088,99.6929825 28.7719298,99.6929825 C28.6842105,99.6929825 28.5964912,99.6710526 28.5087719,99.6491228 C28.3333333,99.627193 28.1359649,99.6052632 27.9605263,99.5614035 C27.7850877,99.5394737 27.6315789,99.495614 27.4561404,99.4736842 C27.2807018,99.4517544 27.1052632,99.4078947 26.9078947,99.3640351 C26.7324561,99.3201754 26.5131579,99.2763158 26.3157895,99.2324561 L26.0745614,99.1885965 C25.9429825,99.1666667 25.7894737,99.122807 25.6578947,99.0789474 C25.2850877,98.9912281 24.9342105,98.8815789 24.5614035,98.7938596 L23.9035088,98.5964912 C23.7061404,98.5307018 23.5307018,98.4868421 23.3333333,98.4210526 C22.8508772,98.2675439 22.3903509,98.0921053 21.9078947,97.9166667 C21.4254386,97.7412281 20.9649123,97.5438596 20.5263158,97.3464912 C20.3070175,97.2368421 20.0657895,97.1491228 19.8464912,97.0394737 C19.627193,96.9298246 19.3859649,96.8201754 19.1666667,96.7105263 C18.9473684,96.6008772 18.7280702,96.4912281 18.5087719,96.3815789 L18.4868421,96.3596491 C18.2675439,96.25 18.0482456,96.1184211 17.8289474,96.0087719 C17.6096491,95.8991228 17.3903509,95.7675439 17.1710526,95.6359649 C16.9517544,95.504386 16.7763158,95.3947368 16.5789474,95.2850877 L16.5131579,95.2412281 C16.3157895,95.1315789 16.1184211,95 15.9429825,94.8684211 L15.8333333,94.8026316 C15.6578947,94.6929825 15.4605263,94.5614035 15.2850877,94.4298246 C15.1096491,94.2982456 14.8684211,94.1447368 14.6710526,93.9912281 C14.4736842,93.8377193 14.2763158,93.7061404 14.0570175,93.5526316 C13.8596491,93.3991228 13.6842105,93.2675439 13.5087719,93.1359649 L13.4649123,93.0921053 C13.2894737,92.9605263 13.1359649,92.8289474 12.9605263,92.6973684 L12.872807,92.6315789 C22.8947368,97.6315789 28.0921053,91.0526316 30.6578947,84.8684211 C31.754386,82.1710526 32.5219298,79.3421053 32.9605263,76.4473684 C33.3991228,79.3421053 34.1666667,82.1491228 35.2631579,84.8684211 C37.9166667,91.0526316 43.0921053,97.6096491 53.1140351,92.6315789 Z" fill="#529BBA"></path>
            <path d="M40.3508772,99.0789474 C40.7236842,98.9912281 41.0964912,98.8815789 41.4473684,98.7938596 C41.0964912,98.9035088 40.7236842,98.9912281 40.3508772,99.0789474 Z" fill="#335F8A"></path>
            <path d="M42.6754386,98.4210526 C43.1578947,98.2675439 43.6184211,98.0921053 44.1008772,97.9166667 C43.6403509,98.0921053 43.1578947,98.245614 42.6754386,98.4210526 Z" fill="#335F8A"></path>
            <path d="M44.1008772,97.8947368 C44.5614035,97.7192982 45.0219298,97.5219298 45.4824561,97.3245614 C45.0438596,97.5438596 44.5614035,97.7192982 44.1008772,97.8947368 Z" fill="#335F8A"></path>
            <path d="M66.0964912,65.4605263 C66.0964912,76.1622807 61.0087719,86.1622807 53.1359649,92.6315789 C43.1140351,97.6315789 37.9166667,91.0526316 35.3508772,84.8684211 C34.254386,82.1710526 33.4868421,79.3421053 33.0482456,76.4473684 L65.1096491,57.4780702 C65.7675439,60.0877193 66.0964912,62.7850877 66.0964912,65.4605263 Z" fill="#4B6B9A"></path>
        </g>
    </g>
</svg>
