<?xml version="1.0" encoding="UTF-8"?>
<svg width="600px" height="260px" viewBox="0 0 600 260" version="1.1" xmlns="http://www.w3.org/2000/svg" xmlns:xlink="http://www.w3.org/1999/xlink">
    <!-- Generator: Sketch 55.2 (78181) - https://sketchapp.com -->
    <title>bg</title>
    <desc>Created with Sketch.</desc>
    <g id="bg" stroke="none" stroke-width="1" fill="none" fill-rule="evenodd" fill-opacity="0.05">
        <g id="pie" transform="translate(164.850000, 162.160303)" fill="#FFFFFF" fill-rule="nonzero">
            <path d="M42,155.969208 L42,209.066734 C65.5454663,222.6875 97.8698357,231.20991 133.65,231.441926 L133.65,177.891998 C98.1657253,177.664849 65.9229185,169.388027 42,155.969208 Z M39,154.233473 C21.2490607,143.640019 8.49157454,130.110523 3,114.946098 L3,154.646787 C3,174.951574 16.6714871,193.496423 39,207.274376 L39,154.233473 Z M231,207.458887 C253.505994,193.66221 267.3,175.042353 267.3,154.646787 L267.3,114.946098 C261.777537,130.195817 248.907198,143.792163 231,154.411946 L231,207.458887 Z M228,209.239732 L228,156.136971 C204.186766,169.412992 172.198243,177.611521 137,177.889486 L137,178 L136.65,178 L136.65,231.441926 C172.278442,231.210894 204.480335,222.759627 228,209.239732 Z M39.7147618,45.0315737 C17.769962,58.3633312 4.00085744,76.2551914 3.05239249,95.9217797 L128.357535,95.921787 L39.7147618,45.0315737 Z M42.6901288,43.2805021 L134,95.701908 L134,21.2996438 C98.4291947,21.4764261 66.2524474,29.8468566 42.6901288,43.2805021 Z M230.593764,151.15682 C253.034667,137.52115 266.923763,119.116324 267.292471,98.921787 L139.608525,98.921787 L230.593764,151.15682 Z M227.618675,152.908052 L137,100.883465 L137,174.889391 C172.297263,174.607011 204.210213,166.256448 227.618675,152.908052 Z M39.706236,151.15682 L130.691475,98.921787 L3.0075286,98.921787 C3.37623675,119.116324 17.2653329,137.52115 39.706236,151.15682 Z M42.6813245,152.908052 C66.2444316,166.344632 98.424764,174.717126 134,174.89393 L134,100.481591 L42.6813245,152.908052 Z M230.585238,45.0315737 L141.942465,95.921787 L267.247608,95.921787 C266.299143,76.2551914 252.530038,58.3633313 230.585238,45.0315737 Z M227.609871,43.2805021 C204.202211,29.9350325 172.292838,21.5865281 137,21.304183 L137,95.3000348 L227.609871,43.2805021 Z M0,98.921787 L0,95.921787 L0.0488533517,95.921787 C1.99504241,52.6531547 61.8418919,18.296787 135.15,18.296787 C208.458108,18.296787 268.304958,52.6531547 270.251147,95.921787 L270.3,95.921787 L270.3,98.921787 L270.3,157.646787 L270.206966,157.646787 C267.542657,200.52633 207.99156,234.446787 135.15,234.446787 C62.3084398,234.446787 2.7573431,200.52633 0.0930352201,157.646809 L0,157.646787 L0,98.921787 Z" id="Combined-Shape"></path>
        </g>
        <g id="pie" transform="translate(164.850000, -97.839697)" fill="#FFFFFF" fill-rule="nonzero">
            <path d="M42,155.969208 L42,209.066734 C65.5454663,222.6875 97.8698357,231.20991 133.65,231.441926 L133.65,177.891998 C98.1657253,177.664849 65.9229185,169.388027 42,155.969208 Z M39,154.233473 C21.2490607,143.640019 8.49157454,130.110523 3,114.946098 L3,154.646787 C3,174.951574 16.6714871,193.496423 39,207.274376 L39,154.233473 Z M231,207.458887 C253.505994,193.66221 267.3,175.042353 267.3,154.646787 L267.3,114.946098 C261.777537,130.195817 248.907198,143.792163 231,154.411946 L231,207.458887 Z M228,209.239732 L228,156.136971 C204.186766,169.412992 172.198243,177.611521 137,177.889486 L137,178 L136.65,178 L136.65,231.441926 C172.278442,231.210894 204.480335,222.759627 228,209.239732 Z M39.7147618,45.0315737 C17.769962,58.3633312 4.00085744,76.2551914 3.05239249,95.9217797 L128.357535,95.921787 L39.7147618,45.0315737 Z M42.6901288,43.2805021 L134,95.701908 L134,21.2996438 C98.4291947,21.4764261 66.2524474,29.8468566 42.6901288,43.2805021 Z M230.593764,151.15682 C253.034667,137.52115 266.923763,119.116324 267.292471,98.921787 L139.608525,98.921787 L230.593764,151.15682 Z M227.618675,152.908052 L137,100.883465 L137,174.889391 C172.297263,174.607011 204.210213,166.256448 227.618675,152.908052 Z M39.706236,151.15682 L130.691475,98.921787 L3.0075286,98.921787 C3.37623675,119.116324 17.2653329,137.52115 39.706236,151.15682 Z M42.6813245,152.908052 C66.2444316,166.344632 98.424764,174.717126 134,174.89393 L134,100.481591 L42.6813245,152.908052 Z M230.585238,45.0315737 L141.942465,95.921787 L267.247608,95.921787 C266.299143,76.2551914 252.530038,58.3633313 230.585238,45.0315737 Z M227.609871,43.2805021 C204.202211,29.9350325 172.292838,21.5865281 137,21.304183 L137,95.3000348 L227.609871,43.2805021 Z M0,98.921787 L0,95.921787 L0.0488533517,95.921787 C1.99504241,52.6531547 61.8418919,18.296787 135.15,18.296787 C208.458108,18.296787 268.304958,52.6531547 270.251147,95.921787 L270.3,95.921787 L270.3,98.921787 L270.3,157.646787 L270.206966,157.646787 C267.542657,200.52633 207.99156,234.446787 135.15,234.446787 C62.3084398,234.446787 2.7573431,200.52633 0.0930352201,157.646809 L0,157.646787 L0,98.921787 Z" id="Combined-Shape"></path>
        </g>
        <g id="pie" transform="translate(465.000000, 2.000000)" fill="#FFFFFF" fill-rule="nonzero">
            <path d="M42,155.969208 L42,209.066734 C65.5454663,222.6875 97.8698357,231.20991 133.65,231.441926 L133.65,177.891998 C98.1657253,177.664849 65.9229185,169.388027 42,155.969208 Z M39,154.233473 C21.2490607,143.640019 8.49157454,130.110523 3,114.946098 L3,154.646787 C3,174.951574 16.6714871,193.496423 39,207.274376 L39,154.233473 Z M231,207.458887 C253.505994,193.66221 267.3,175.042353 267.3,154.646787 L267.3,114.946098 C261.777537,130.195817 248.907198,143.792163 231,154.411946 L231,207.458887 Z M228,209.239732 L228,156.136971 C204.186766,169.412992 172.198243,177.611521 137,177.889486 L137,178 L136.65,178 L136.65,231.441926 C172.278442,231.210894 204.480335,222.759627 228,209.239732 Z M39.7147618,45.0315737 C17.769962,58.3633312 4.00085744,76.2551914 3.05239249,95.9217797 L128.357535,95.921787 L39.7147618,45.0315737 Z M42.6901288,43.2805021 L134,95.701908 L134,21.2996438 C98.4291947,21.4764261 66.2524474,29.8468566 42.6901288,43.2805021 Z M230.593764,151.15682 C253.034667,137.52115 266.923763,119.116324 267.292471,98.921787 L139.608525,98.921787 L230.593764,151.15682 Z M227.618675,152.908052 L137,100.883465 L137,174.889391 C172.297263,174.607011 204.210213,166.256448 227.618675,152.908052 Z M39.706236,151.15682 L130.691475,98.921787 L3.0075286,98.921787 C3.37623675,119.116324 17.2653329,137.52115 39.706236,151.15682 Z M42.6813245,152.908052 C66.2444316,166.344632 98.424764,174.717126 134,174.89393 L134,100.481591 L42.6813245,152.908052 Z M230.585238,45.0315737 L141.942465,95.921787 L267.247608,95.921787 C266.299143,76.2551914 252.530038,58.3633313 230.585238,45.0315737 Z M227.609871,43.2805021 C204.202211,29.9350325 172.292838,21.5865281 137,21.304183 L137,95.3000348 L227.609871,43.2805021 Z M0,98.921787 L0,95.921787 L0.0488533517,95.921787 C1.99504241,52.6531547 61.8418919,18.296787 135.15,18.296787 C208.458108,18.296787 268.304958,52.6531547 270.251147,95.921787 L270.3,95.921787 L270.3,98.921787 L270.3,157.646787 L270.206966,157.646787 C267.542657,200.52633 207.99156,234.446787 135.15,234.446787 C62.3084398,234.446787 2.7573431,200.52633 0.0930352201,157.646809 L0,157.646787 L0,98.921787 Z" id="Combined-Shape"></path>
        </g>
        <g id="pie" transform="translate(-135.000000, 2.000000)" fill="#FFFFFF" fill-rule="nonzero">
            <path d="M42,155.969208 L42,209.066734 C65.5454663,222.6875 97.8698357,231.20991 133.65,231.441926 L133.65,177.891998 C98.1657253,177.664849 65.9229185,169.388027 42,155.969208 Z M39,154.233473 C21.2490607,143.640019 8.49157454,130.110523 3,114.946098 L3,154.646787 C3,174.951574 16.6714871,193.496423 39,207.274376 L39,154.233473 Z M231,207.458887 C253.505994,193.66221 267.3,175.042353 267.3,154.646787 L267.3,114.946098 C261.777537,130.195817 248.907198,143.792163 231,154.411946 L231,207.458887 Z M228,209.239732 L228,156.136971 C204.186766,169.412992 172.198243,177.611521 137,177.889486 L137,178 L136.65,178 L136.65,231.441926 C172.278442,231.210894 204.480335,222.759627 228,209.239732 Z M39.7147618,45.0315737 C17.769962,58.3633312 4.00085744,76.2551914 3.05239249,95.9217797 L128.357535,95.921787 L39.7147618,45.0315737 Z M42.6901288,43.2805021 L134,95.701908 L134,21.2996438 C98.4291947,21.4764261 66.2524474,29.8468566 42.6901288,43.2805021 Z M230.593764,151.15682 C253.034667,137.52115 266.923763,119.116324 267.292471,98.921787 L139.608525,98.921787 L230.593764,151.15682 Z M227.618675,152.908052 L137,100.883465 L137,174.889391 C172.297263,174.607011 204.210213,166.256448 227.618675,152.908052 Z M39.706236,151.15682 L130.691475,98.921787 L3.0075286,98.921787 C3.37623675,119.116324 17.2653329,137.52115 39.706236,151.15682 Z M42.6813245,152.908052 C66.2444316,166.344632 98.424764,174.717126 134,174.89393 L134,100.481591 L42.6813245,152.908052 Z M230.585238,45.0315737 L141.942465,95.921787 L267.247608,95.921787 C266.299143,76.2551914 252.530038,58.3633313 230.585238,45.0315737 Z M227.609871,43.2805021 C204.202211,29.9350325 172.292838,21.5865281 137,21.304183 L137,95.3000348 L227.609871,43.2805021 Z M0,98.921787 L0,95.921787 L0.0488533517,95.921787 C1.99504241,52.6531547 61.8418919,18.296787 135.15,18.296787 C208.458108,18.296787 268.304958,52.6531547 270.251147,95.921787 L270.3,95.921787 L270.3,98.921787 L270.3,157.646787 L270.206966,157.646787 C267.542657,200.52633 207.99156,234.446787 135.15,234.446787 C62.3084398,234.446787 2.7573431,200.52633 0.0930352201,157.646809 L0,157.646787 L0,98.921787 Z" id="Combined-Shape"></path>
        </g>
    </g>
</svg>