<?xml version="1.0" encoding="UTF-8"?>
<svg width="256px" height="256px" viewBox="0 0 256 256" version="1.1" xmlns="http://www.w3.org/2000/svg" xmlns:xlink="http://www.w3.org/1999/xlink">
    <!-- Generator: Sketch 55.2 (78181) - https://sketchapp.com -->
    <title>logo</title>
    <desc>Created with Sketch.</desc>
    <defs>
        <path d="M41.5664771,187.086673 C55.606931,197.668069 72.4170238,204.824991 90.7427981,207.292413 L90.7427981,138.070387 L41.5664771,187.086673 Z M21.5627485,167.306139 L67.2751118,121.742538 L1.49854899,121.742538 C4.42428006,138.665378 11.4629175,154.206911 21.5627485,167.306139 Z M168.433523,20.9133265 C154.393069,10.3319313 137.582976,3.17500855 119.257202,0.707586803 L119.257202,69.929613 L168.433523,20.9133265 L168.433523,20.9133265 Z M188.437252,40.6938606 L135.731458,93.2281339 L209.463477,93.2281339 C207.43161,73.6023006 199.909135,55.5726071 188.437252,40.6938606 Z M168.433523,187.086673 L119.257202,138.070387 L119.257202,207.292413 C137.582976,204.824991 154.393069,197.668069 168.433523,187.086673 Z M188.437252,167.306139 C198.537083,154.206911 205.57572,138.665378 208.501451,121.742538 L142.724888,121.742538 L188.437252,167.306139 Z M41.5664771,20.9133265 L90.7427981,69.929613 L90.7427981,0.707586803 C72.4170238,3.17500855 55.606931,10.3319313 41.5664771,20.9133265 L41.5664771,20.9133265 Z M21.5627485,40.6938606 L74.2685422,93.2281339 L0.53652292,93.2281339 C2.56838968,73.6023006 10.0908649,55.5726071 21.5627485,40.6938606 Z" id="path-1"></path>
    </defs>
    <g id="logo" stroke="none" stroke-width="1" fill="none" fill-rule="evenodd">
        <g id="Group" transform="translate(23.000000, 24.000000)">
            <mask id="mask-2" fill="white">
                <use xlink:href="#path-1"></use>
            </mask>
            <use id="Shape" fill="#FFFFFF" fill-rule="nonzero" xlink:href="#path-1"></use>
            <circle id="Oval" fill="#FFFFFF" mask="url(#mask-2)" cx="105" cy="104" r="117.586207"></circle>
        </g>
    </g>
</svg>